<svg width="80" height="80" viewBox="0 0 80 80" fill="none" xmlns="http://www.w3.org/2000/svg">
<g clip-path="url(#clip0_101_390)">
<path d="M79.6484 69.5917H7.24836L8.35169 63.5833H0.671692C13.44 47.2508 17.0884 16.2167 17.0884 16.2167L17.2484 14.9542H75.4242L79.6484 69.5917Z" fill="white"/>
<path d="M77.5516 14.6658L75.6316 23.12C75.4083 24.0625 74.6241 24.7342 73.7283 24.7342H20.2883C19.0716 24.7342 18.1441 23.5517 18.3516 22.2567L19.6958 13.8033C19.8558 12.7808 20.6716 12.045 21.6316 12.045H75.6483C76.9116 12.045 77.8558 13.34 77.5516 14.6658Z" fill="#0CC0DF"/>
<mask id="mask0_101_390" style="mask-type:luminance" maskUnits="userSpaceOnUse" x="0" y="10" width="80" height="60">
<path d="M0 10.4533H80V69.9633H0V10.4533Z" fill="white"/>
</mask>
<g mask="url(#mask0_101_390)">
<path d="M54.4158 45.8442H61.1517V45.1892H54.6242L57.4883 36.4475H64.5283V35.7925H57.6958L59.8558 29.1767L59.2317 28.9692L56.9917 35.7925H47.0083L49.1683 29.1767L48.5442 28.9692L46.3042 35.7925H35.7917L37.9517 29.1767L37.3283 28.9692L35.0883 35.7925H25.7917L27.9517 29.1767L27.3283 28.9692L25.0883 35.7925H18.4958V36.4475H24.8642L22 45.1892H15.1517V45.8442H21.8242L19.0083 54.4584H11.44V55.1133H18.7842L17.2 59.9717L17.8242 60.1792L19.4883 55.1292H28.7842L27.2 59.9875L27.8242 60.195L29.4717 55.145H40L38.4158 60.0033L39.04 60.2108L40.6883 55.1617H50.6717L49.0883 60.0192L49.7117 60.2275L51.3758 55.1775H57.44V54.5217H51.5842L54.4158 45.8442ZM46.8158 36.4317H56.8L53.9358 45.1734H43.9517L46.8158 36.4317ZM35.6 36.4317H46.1117L43.2483 45.1734H32.7358L35.6 36.4317ZM25.6 36.4317H34.8958L32.0317 45.1734H22.7358L25.6 36.4317ZM29.0083 54.4584H19.7117L22.5283 45.8442H31.8242L29.0083 54.4584ZM40.2083 54.4584H29.6958L32.5117 45.8442H43.04L40.2083 54.4584ZM50.8958 54.4584H40.9117L43.7283 45.8442H53.7117L50.8958 54.4584ZM75.76 14.97L75.8242 14.6184H71.5683C71.0558 12.5409 69.5683 11.0067 67.6317 10.5909C64.9283 10 62.1917 11.7734 61.2642 14.6184H58.24C57.7117 12.5725 56.2242 11.0384 54.3042 10.6234C51.6158 10.0317 48.88 11.79 47.9517 14.6184H44.8483C44.32 12.5884 42.8483 11.0867 40.9283 10.6709C38.24 10.08 35.5358 11.8217 34.5917 14.6342H31.5842C31.04 12.605 29.5683 11.1184 27.6642 10.7034C24.9917 10.1117 22.2883 11.8534 21.3442 14.6342H16.96L16.7517 16.2C16.72 16.5042 12.9758 47.2992 0.415833 63.375L0 63.9025H7.96833L6.86417 69.9275H80L75.76 14.97ZM67.4883 11.23C69.12 11.5975 70.4 12.8767 70.88 14.6184H61.9517C62.8483 12.2209 65.1842 10.735 67.4883 11.23ZM54.16 11.2784C55.7917 11.63 57.0558 12.9084 57.5517 14.6342H48.6558C49.5517 12.2375 51.8717 10.7667 54.16 11.2784ZM40.7842 11.31C42.4 11.6617 43.6642 12.9242 44.16 14.6342H35.28C36.1917 12.2692 38.5117 10.815 40.7842 11.31ZM27.52 11.3425C29.12 11.6942 30.3842 12.94 30.8958 14.6184H22.0483C22.96 12.285 25.2642 10.8467 27.52 11.3425ZM17.4083 16.2642L17.5358 15.2892H21.1517C21.1517 15.3059 21.1358 15.3375 21.1358 15.3534C20.8 16.9034 21.0242 18.47 21.76 19.78C22.5117 21.1067 23.6958 22.0017 25.1042 22.305L25.2483 21.6659C24.0317 21.3942 22.9917 20.6109 22.3358 19.4442C21.68 18.2775 21.4717 16.8717 21.7758 15.4809C21.7917 15.4017 21.8083 15.3375 21.8242 15.2734H34.4C34.4 15.2892 34.4 15.2892 34.3842 15.3059C34.0483 16.8559 34.2717 18.4217 35.0083 19.7317C35.76 21.0584 36.9442 21.9534 38.3517 22.2734L38.4958 21.6342C37.2642 21.3625 36.24 20.5792 35.5842 19.4284C34.9283 18.2617 34.72 16.8559 35.0242 15.465C35.04 15.4017 35.0558 15.3534 35.0717 15.2892H47.76C47.0558 18.4859 48.8483 21.6175 51.7442 22.2409L51.8883 21.6017C49.3442 21.0425 47.7917 18.2775 48.4158 15.4334C48.4317 15.385 48.4483 15.3375 48.4483 15.2892H61.0717C60.7517 16.8234 60.9758 18.3734 61.7117 19.6842C62.4642 21.0108 63.6483 21.9059 65.0558 22.2092L65.2 21.57C63.9683 21.2984 62.9442 20.515 62.2883 19.3484C61.6317 18.1817 61.4242 16.7759 61.7283 15.385C61.7283 15.3534 61.7442 15.3217 61.76 15.2892H75.04C74.5117 17.9584 73.44 21.9059 72.1117 26.4117H15.68C16.9117 20.4675 17.4083 16.3759 17.4083 16.2642ZM1.34417 63.2475C9.04 53.0675 13.36 37.4709 15.5358 27.0675H71.9042C67.6158 41.4175 60.8158 60.9467 60.0158 63.2475H1.34417ZM65.1517 69.2559H7.64833L8.62417 63.9025H60.48L60.56 63.6792C60.6717 63.375 68.9283 39.8042 73.3283 24.5267L65.1517 69.2559ZM65.8242 69.2559L74.8958 19.7158L72.7683 69.2559H65.8242ZM75.52 20.4833L79.28 69.2559H73.44L75.52 20.4833Z" fill="black"/>
</g>
</g>
<defs>
<clipPath id="clip0_101_390">
<rect width="80" height="80" fill="white"/>
</clipPath>
</defs>
</svg>
